<?xml version="1.0" encoding="UTF-8" standalone="no"?>
<!-- Created with Inkscape (http://www.inkscape.org/) -->

<svg
   width="90"
   height="90"
   viewBox="0 0 23.812499 23.8125"
   version="1.1"
   id="svg1"
   xml:space="preserve"
   inkscape:version="1.3.2 (091e20e, 2023-11-25, custom)"
   sodipodi:docname="favicone.svg"
   xmlns:inkscape="http://www.inkscape.org/namespaces/inkscape"
   xmlns:sodipodi="http://sodipodi.sourceforge.net/DTD/sodipodi-0.dtd"
   xmlns="http://www.w3.org/2000/svg"
   xmlns:svg="http://www.w3.org/2000/svg"
   xmlns:rdf="http://www.w3.org/1999/02/22-rdf-syntax-ns#"
   xmlns:cc="http://creativecommons.org/ns#"
   xmlns:dc="http://purl.org/dc/elements/1.1/"><title
     id="title5">Logo La Peraudiere</title><sodipodi:namedview
     id="namedview1"
     pagecolor="#ffffff"
     bordercolor="#111111"
     borderopacity="1"
     inkscape:showpageshadow="0"
     inkscape:pageopacity="0"
     inkscape:pagecheckerboard="1"
     inkscape:deskcolor="#d1d1d1"
     inkscape:document-units="mm"
     inkscape:zoom="3.4570458"
     inkscape:cx="16.921963"
     inkscape:cy="88.370249"
     inkscape:window-width="1920"
     inkscape:window-height="1009"
     inkscape:window-x="1912"
     inkscape:window-y="702"
     inkscape:window-maximized="1"
     inkscape:current-layer="layer2" /><defs
     id="defs1" /><g
     inkscape:groupmode="layer"
     id="layer2"
     inkscape:label="Logo"
     transform="matrix(0.15640121,0,0,0.15640121,-4.330677,-3.113291)"><path
       style="opacity:1;fill:none;stroke:#121212;stroke-width:5;stroke-linecap:butt;stroke-linejoin:miter;stroke-dasharray:none;stroke-opacity:1"
       d="m 53.252184,132.91399 c 0,0 6.061225,-4.32944 0.432946,-10.39067 -4.903081,-5.28024 -12.555394,-2.59766 -15.586006,2.59767 -3.030611,5.19534 -1.850519,10.36267 0,12.55539 6.136894,7.27175 20.348397,5.62828 16.88484,6.06123 -3.463557,0.43294 17.317784,-3.46355 24.677843,-17.75073 5.338579,-10.36313 4.391697,-20.11537 4.814915,-19.30317 0.423218,0.8122 28.954758,30.55972 26.790038,42.24923 -2.16473,11.6895 -5.62828,14.72012 -5.62828,14.72012 0,0 -6.061223,-6.92711 -6.061223,-14.72011 0,-7.79301 6.061223,-19.91546 8.658893,-22.51313 2.59767,-2.59766 14.96104,-19.11752 15.50496,-19.94171 0.54391,-0.82419 2.67871,18.20994 11.3376,25.13705 8.6589,6.92711 15.58601,12.12245 29.00729,11.25656 13.42129,-0.86589 12.98834,-16.45189 3.46356,-21.21429 -7.9831,-3.99156 -12.55539,3.46356 -12.55539,3.46356 -3.23113,6.00537 2.16472,8.22594 2.16472,8.22594"
       id="path3"
       sodipodi:nodetypes="cssssszscsszssssc" /><path
       style="opacity:1;fill:none;stroke:#121212;stroke-width:5;stroke-linecap:butt;stroke-linejoin:miter;stroke-dasharray:none;stroke-dashoffset:0;stroke-opacity:1"
       d="M 104.43587,19.915452 104.86882,132.0481"
       id="path1" /><path
       style="opacity:1;fill:none;stroke:#121212;stroke-width:5;stroke-linecap:butt;stroke-linejoin:miter;stroke-dasharray:none;stroke-dashoffset:0;stroke-opacity:1"
       d="m 77.16036,38.387793 h 55.41691"
       id="path2" /><path
       style="opacity:1;fill:none;stroke:#121212;stroke-width:4.99999;stroke-linecap:butt;stroke-linejoin:miter;stroke-dasharray:none;stroke-dashoffset:0;stroke-opacity:1"
       d="m 80.527696,96.979591 c 0,0 -4.24779,-12.344624 5.195334,-19.049564 8.233537,-5.846092 19.48251,6.927115 19.48251,6.927115 0,0 12.6991,-14.187358 21.64723,-5.62828 9.95773,9.524781 1.73178,18.183674 1.73178,18.183674"
       id="path4"
       sodipodi:nodetypes="cscsc" /><path
       style="opacity:1;mix-blend-mode:normal;fill:none;stroke:#121212;stroke-width:5;stroke-linecap:butt;stroke-linejoin:miter;stroke-dasharray:none;stroke-dashoffset:0;stroke-opacity:1"
       d="m 29.873177,145.03644 c 0,0 12.555395,-3.99272 42.861516,5.09911 30.306127,9.09184 32.903787,16.11518 32.903787,16.11518 0,0 5.98992,-10.47835 34.20262,-17.31779 28.57435,-6.92711 38.96502,-4.76239 38.96502,-4.76239"
       id="path5"
       sodipodi:nodetypes="cscsc" /></g><metadata
     id="metadata5"><rdf:RDF><cc:Work
         rdf:about=""><dc:title>Logo La Peraudiere</dc:title></cc:Work></rdf:RDF></metadata></svg>
